Coordinates
version=1
nRows=26
nColumns=24
inDegrees=yes

Units are S.I. units (second, meters, Newtons, ...)
Angles are in degrees.

endheader
time	pelvis_tilt	pelvis_list	pelvis_rotation	pelvis_tx	pelvis_ty	pelvis_tz	hip_flexion_r	hip_adduction_r	hip_rotation_r	knee_angle_r	ankle_angle_r	subtalar_angle_r	mtp_angle_r	hip_flexion_l	hip_adduction_l	hip_rotation_l	knee_angle_l	ankle_angle_l	subtalar_angle_l	mtp_angle_l	lumbar_extension	lumbar_bending	lumbar_rotation
      3.83000000	    -11.87257341	      9.15711754	     -4.35356603	     -0.75911761	     -0.03881758	     -0.24298350	     12.02838035	    -15.75927580	     -8.03575111	    -56.86769371	    -28.52767051	    -18.62073760	      8.00752115	     31.78773472	      8.77496572	     -7.65988922	    -24.28838639	     -0.94249391	    -15.43424469	    -11.20381686	     10.01469768	     -9.29650939	      5.83123286
      3.83500000	    -11.89685333	      9.05730737	     -4.22333806	     -0.75173364	     -0.03752162	     -0.24380254	     13.07182240	    -15.59247364	     -7.86807689	    -58.09080741	    -27.52239483	    -19.27320064	      7.60525162	     31.14856592	      8.83424372	     -7.57868020	    -24.00430750	     -0.53462090	    -15.11736870	    -10.62994347	      9.99280425	     -9.21441675	      5.60527689
      3.84000000	    -11.80431080	      8.95838201	     -4.06583443	     -0.74442391	     -0.03605034	     -0.24475436	     13.95815746	    -15.47477533	     -7.82895775	    -59.16657256	    -26.66089586	    -19.92962051	      7.71325787	     30.36752059	      8.95703244	     -7.36239461	    -23.67756207	     -0.20842555	    -14.97862250	    -10.47023505	      9.82097692	     -9.13714028	      5.33732790
      3.84500000	    -11.78986994	      8.78876449	     -3.94832312	     -0.73711072	     -0.03463174	     -0.24554250	     14.92324994	    -15.22890359	     -7.70442578	    -60.15952596	    -25.55102049	    -20.15046923	      7.88808594	     29.67658166	      8.94324709	     -7.27065187	    -23.38043234	      0.22398052	    -14.66175773	    -10.13961768	      9.74226679	     -8.97548335	      5.06866362
      3.85000000	    -11.75389261	      8.58777940	     -3.86145635	     -0.72986861	     -0.03315892	     -0.24633302	     15.86559431	    -14.95012772	     -7.59960102	    -61.04853341	    -24.48100434	    -20.24434935	      8.16399030	     28.95178762	      8.90460840	     -7.08724999	    -23.05656053	      0.56384606	    -14.49026859	     -9.85508910	      9.63934554	     -8.76916661	      4.86086801
      3.85500000	    -11.70839679	      8.37173206	     -3.77447798	     -0.72264948	     -0.03165980	     -0.24710763	     16.77981120	    -14.65635829	     -7.52150706	    -61.83444618	    -23.40587938	    -20.16088477	      8.57673702	     28.20886745	      8.85368416	     -6.87434199	    -22.71404179	      0.85871169	    -14.36258170	     -9.60799706	      9.52621762	     -8.54716783	      4.63599622
      3.86000000	    -11.65861678	      8.14735324	     -3.68273359	     -0.71546799	     -0.03016095	     -0.24788198	     17.67346139	    -14.35382162	     -7.45798964	    -62.52590096	    -22.32945310	    -19.89716500	      9.14520053	     27.45353072	      8.80033945	     -6.62478960	    -22.34953630	      1.12057078	    -14.28250926	     -9.40316042	      9.40595914	     -8.31486502	      4.41410575
      3.86500000	    -11.59246414	      8.01929477	     -3.65377294	     -0.70824547	     -0.02867483	     -0.24869093	     18.56522570	    -14.15725982	     -7.30498223	    -63.10198603	    -21.46875423	    -19.57112802	     11.09602703	     26.63821445	      8.85034186	     -6.35282969	    -21.86107042	      1.13479592	    -14.52912115	     -9.08520425	      9.29887787	     -8.15383007	      4.30551253
      3.87000000	    -11.54231236	      7.73481941	     -3.47770686	     -0.70109128	     -0.02720981	     -0.24949793	     19.38024921	    -13.81423196	     -7.38599567	    -63.58471542	    -20.49880273	    -19.15631226	     11.84772923	     25.87755092	      8.75556019	     -6.02105373	    -21.51210763	      1.51669716	    -14.27829721	     -8.96432013	      9.16855468	     -7.87836763	      3.97447088
      3.87500000	    -11.45077995	      7.57684203	     -3.44070049	     -0.69397503	     -0.02571630	     -0.25027896	     20.20477382	    -13.57359238	     -7.26142896	    -63.96989011	    -19.67933767	    -18.66929543	     13.97375122	     25.02685200	      8.77880663	     -5.71671061	    -21.00723184	      1.58580564	    -14.52684925	     -9.21952815	      9.02325085	     -7.68778691	      3.84908066
      3.88000000	    -11.42309498	      7.24543630	     -3.23975378	     -0.68689968	     -0.02428643	     -0.25102835	     20.99342919	    -13.16524431	     -7.39602554	    -64.26323072	    -18.72742722	    -18.16989584	     14.59163901	     24.28391492	      8.62095103	     -5.39465316	    -20.63710430	      1.94597460	    -14.24483733	     -9.17378087	      8.90557338	     -7.37017754	      3.48522835
      3.88500000	    -11.33869717	      7.05538150	     -3.08813485	     -0.67977753	     -0.02288186	     -0.25196400	     21.72250110	    -12.93910317	     -7.41574393	    -64.38965760	    -18.23301966	    -17.82483257	     18.26247225	     23.43263755	      8.64199463	     -5.00760430	    -20.15175850	      2.27778852	    -14.23509594	     -9.95430209	      8.75688993	     -7.16352908	      3.23910192
      3.89000000	    -11.29636230	      6.81118396	     -2.94739200	     -0.67274116	     -0.02155120	     -0.25265755	     22.50978020	    -12.60480853	     -7.48033394	    -64.56104044	    -17.18550296	    -17.20735749	     18.69755760	     22.64944563	      8.54126394	     -4.80754931	    -19.68713103	      2.52573309	    -14.06145513	     -9.93170344	      8.64379650	     -6.91651348	      2.97961681
      3.89500000	    -11.23532610	      6.59444368	     -2.77667133	     -0.66569682	     -0.02026988	     -0.25342021	     23.24962895	    -12.32336005	     -7.57820780	    -64.65213386	    -16.11883221	    -16.55252373	     19.26719150	     21.82955357	      8.48415178	     -4.56330832	    -19.18409557	      2.74270769	    -13.93074622	     -9.93521251	      8.51095545	     -6.70199062	      2.70669966
      3.90000000	    -11.13317164	      6.41274553	     -2.57794245	     -0.65862987	     -0.01899040	     -0.25432958	     23.89206547	    -12.10978394	     -7.68374195	    -64.54364085	    -15.52917882	    -16.26395899	     22.29630590	     20.94155274	      8.49228697	     -4.23831507	    -18.64001111	      2.99127514	    -13.85283942	    -10.40816277	      8.33974966	     -6.51659612	      2.42033378
      3.90500000	    -11.10036947	      6.17797707	     -2.39580897	     -0.65163614	     -0.01783971	     -0.25503830	     24.61952744	    -11.79249226	     -7.80632066	    -64.46984572	    -14.49816755	    -15.72604588	     22.68682976	     20.16153519	      8.38365260	     -4.08650613	    -18.14292618	      3.23890978	    -13.59036228	    -10.34703679	      8.23343944	     -6.28853223	      2.14290328
      3.91000000	    -11.03898754	      5.96553149	     -2.18757917	     -0.64464867	     -0.01673051	     -0.25580949	     25.28807191	    -11.51867807	     -7.95816324	    -64.31191384	    -13.49821805	    -15.24414234	     23.16445121	     19.34020012	      8.31151321	     -3.88883496	    -17.61808271	      3.44234701	    -13.38456781	    -10.29773161	      8.09918778	     -6.08245016	      1.84429368
      3.91500000	    -10.97273405	      5.75181372	     -1.96529097	     -0.63767938	     -0.01567936	     -0.25660368	     25.92431051	    -11.25071638	     -8.12840408	    -64.06661812	    -12.55632921	    -14.83314462	     23.70342005	     18.51550897	      8.23639993	     -3.68409165	    -17.08986395	      3.63058486	    -13.18726868	    -10.24709362	      7.95473715	     -5.87679140	      1.53200027
      3.92000000	    -10.79577493	      5.57039653	     -1.78937282	     -0.63070943	     -0.01456994	     -0.25743126	     26.41438232	    -11.01402864	     -8.24977993	    -63.66955245	    -11.89553022	    -14.66878584	     25.58264530	     17.53755449	      8.20200408	     -3.43755955	    -16.48501235	      3.70644073	    -13.19044340	    -10.23967227	      7.69878032	     -5.68741290	      1.30573472
      3.92500000	    -10.84866199	      5.32399707	     -1.50884468	     -0.62381952	     -0.01378305	     -0.25822448	     27.13657283	    -10.72005624	     -8.48215170	    -63.27923747	    -11.13463060	    -14.46230258	     25.88752543	     16.88256922	      8.07225901	     -3.23503445	    -16.02754280	      3.96051036	    -12.85636422	    -10.14923662	      7.67112732	     -5.45861202	      0.92566792
      3.93000000	    -10.81720984	      5.10564075	     -1.26839616	     -0.61692733	     -0.01298408	     -0.25900254	     27.75255430	    -10.45526319	     -8.68535621	    -62.80929591	    -10.39785288	    -14.25685790	     26.20659240	     16.11617730	      7.96941854	     -3.02493237	    -15.52101043	      4.14877237	    -12.65051750	    -10.09091148	      7.56037312	     -5.25119249	      0.60622129
      3.93500000	    -10.70793692	      4.93403245	     -1.01618003	     -0.61006059	     -0.01218759	     -0.25980599	     28.26418179	    -10.25862493	     -8.89091763	    -62.26178456	     -9.77063314	    -14.15070801	     26.72686569	     15.25301121	      7.92099260	     -2.78211225	    -14.98088837	      4.27937473	    -12.49170445	    -10.04224294	      7.35866627	     -5.08954272	      0.29692489
      3.94000000	    -10.74052916	      4.71679601	     -0.78658779	     -0.60319107	     -0.01159956	     -0.26058376	     28.92118730	     -9.99457249	     -9.08761933	    -61.65340794	     -9.23715048	    -14.08362798	     26.91284925	     14.57010830	      7.80185245	     -2.61917332	    -14.48342478	      4.44782634	    -12.32270665	     -9.99814923	      7.32115828	     -4.86605916	      0.00465652
      3.94500000	    -10.69606736	      4.53379483	     -0.50379411	     -0.59636757	     -0.01099824	     -0.26134646	     29.45913740	     -9.80478263	     -9.33221184	    -60.97564867	     -8.71911969	    -14.00064416	     27.11297021	     13.80737360	      7.71998203	     -2.42674963	    -13.98673229	      4.58731693	    -12.09572432	     -9.94631610	      7.18570907	     -4.70544185	     -0.37401987
      3.95000000	    -10.69850311	      4.36420630	     -0.27449367	     -0.58952707	     -0.01055472	     -0.26207103	     30.05356977	     -9.61018140	     -9.53410551	    -60.24863581	     -8.30255691	    -13.97948506	     27.22150899	     13.08995349	      7.63621335	     -2.26657259	    -13.47644655	      4.74585846	    -11.91570911	     -9.89670181	      7.11484415	     -4.54078925	     -0.62636929
      3.95500000	    -10.67279424	      4.20542900	     -0.00487268	     -0.58271641	     -0.01014470	     -0.26280864	     30.58329762	     -9.45824342	     -9.77828779	    -59.45271326	     -7.92263005	    -13.94058446	     27.30327107	     12.35518295	      7.56128995	     -2.13022139	    -12.98358671	      4.89627404	    -11.67659860	     -9.83168886	      7.00482063	     -4.39535805	     -0.97032157
